<mxfile host="app.diagrams.net" agent="Mozilla/5.0 (Windows NT 10.0; Win64; x64) AppleWebKit/537.36 (KHTML, like Gecko) Chrome/131.0.0.0 Safari/537.36" version="25.0.3">
  <diagram name="Page-1" id="aEgPRUHAwX9pzXcy9a0Z">
    <mxGraphModel dx="223" dy="517" grid="1" gridSize="10" guides="1" tooltips="1" connect="1" arrows="1" fold="1" page="1" pageScale="1" pageWidth="1100" pageHeight="850" math="0" shadow="0">
      <root>
        <mxCell id="0" />
        <mxCell id="1" parent="0" />
        <mxCell id="fauWV8nnHuFYdSQUnoCU-7" style="edgeStyle=orthogonalEdgeStyle;rounded=0;orthogonalLoop=1;jettySize=auto;html=1;entryX=0.5;entryY=0;entryDx=0;entryDy=0;" edge="1" parent="1" source="fauWV8nnHuFYdSQUnoCU-1" target="fauWV8nnHuFYdSQUnoCU-2">
          <mxGeometry relative="1" as="geometry" />
        </mxCell>
        <mxCell id="fauWV8nnHuFYdSQUnoCU-1" value="Idle/Setup&lt;div&gt;State&lt;/div&gt;" style="rounded=1;whiteSpace=wrap;html=1;" vertex="1" parent="1">
          <mxGeometry x="420" y="150" width="120" height="60" as="geometry" />
        </mxCell>
        <mxCell id="fauWV8nnHuFYdSQUnoCU-2" value="Gameplay&lt;div&gt;State&lt;/div&gt;" style="rounded=1;whiteSpace=wrap;html=1;" vertex="1" parent="1">
          <mxGeometry x="420" y="250" width="120" height="60" as="geometry" />
        </mxCell>
        <mxCell id="fauWV8nnHuFYdSQUnoCU-8" style="edgeStyle=orthogonalEdgeStyle;rounded=0;orthogonalLoop=1;jettySize=auto;html=1;" edge="1" parent="1" source="fauWV8nnHuFYdSQUnoCU-3" target="fauWV8nnHuFYdSQUnoCU-4">
          <mxGeometry relative="1" as="geometry">
            <Array as="points">
              <mxPoint x="480" y="450" />
              <mxPoint x="360" y="450" />
            </Array>
          </mxGeometry>
        </mxCell>
        <mxCell id="fauWV8nnHuFYdSQUnoCU-3" value="Feedback&amp;nbsp;&lt;div&gt;State&lt;/div&gt;" style="rounded=1;whiteSpace=wrap;html=1;" vertex="1" parent="1">
          <mxGeometry x="420" y="365" width="120" height="60" as="geometry" />
        </mxCell>
        <mxCell id="fauWV8nnHuFYdSQUnoCU-4" value="Game Over&amp;nbsp;&lt;div&gt;State&lt;/div&gt;" style="rounded=1;whiteSpace=wrap;html=1;" vertex="1" parent="1">
          <mxGeometry x="300" y="500" width="120" height="60" as="geometry" />
        </mxCell>
        <mxCell id="fauWV8nnHuFYdSQUnoCU-9" style="edgeStyle=orthogonalEdgeStyle;rounded=0;orthogonalLoop=1;jettySize=auto;html=1;" edge="1" parent="1" source="fauWV8nnHuFYdSQUnoCU-5">
          <mxGeometry relative="1" as="geometry">
            <mxPoint x="480" y="420" as="targetPoint" />
            <Array as="points">
              <mxPoint x="600" y="460" />
              <mxPoint x="481" y="460" />
            </Array>
          </mxGeometry>
        </mxCell>
        <mxCell id="fauWV8nnHuFYdSQUnoCU-5" value="Gameplay&lt;div&gt;state&lt;/div&gt;" style="rounded=1;whiteSpace=wrap;html=1;" vertex="1" parent="1">
          <mxGeometry x="540" y="500" width="120" height="60" as="geometry" />
        </mxCell>
        <mxCell id="fauWV8nnHuFYdSQUnoCU-6" value="" style="endArrow=classic;html=1;rounded=0;entryX=0.5;entryY=0;entryDx=0;entryDy=0;exitX=0.5;exitY=1;exitDx=0;exitDy=0;" edge="1" parent="1" source="fauWV8nnHuFYdSQUnoCU-2" target="fauWV8nnHuFYdSQUnoCU-3">
          <mxGeometry width="50" height="50" relative="1" as="geometry">
            <mxPoint x="430" y="320" as="sourcePoint" />
            <mxPoint x="470" y="330" as="targetPoint" />
          </mxGeometry>
        </mxCell>
      </root>
    </mxGraphModel>
  </diagram>
</mxfile>
